<svg width="51" height="50" viewBox="0 0 51 50" fill="none" xmlns="http://www.w3.org/2000/svg">
<path d="M6.92004 46.7017L21.7638 46.7017C24.4964 46.7017 26.8309 44.4137 25.953 41.8259C22.2832 31.0087 6.40068 31.0088 2.73084 41.826C1.8529 44.4137 4.18738 46.7017 6.92004 46.7017Z" fill="#444951"/>
<path d="M7.74456 23.611V21.9617C7.74456 17.4073 11.4367 13.7152 15.9911 13.7152C16.902 13.7152 17.6404 14.4536 17.6404 15.3645V16.1892C17.6404 16.6446 18.0096 17.0138 18.4651 17.0138C19.8314 17.0138 20.939 18.1214 20.939 19.4878V21.9617V23.611C20.939 27.2546 17.9853 30.2083 14.3418 30.2083C10.6982 30.2083 7.74456 27.2546 7.74456 23.611Z" fill="#444951"/>
<path d="M7.74456 21.9617V23.611C7.74456 27.2546 10.6982 30.2083 14.3418 30.2083C17.9853 30.2083 20.939 27.2546 20.939 23.611V21.9617M7.74456 21.9617L10.4321 20.618C10.8234 20.4223 11.2753 20.3946 11.6955 20.516C13.6108 21.0692 15.0728 21.0692 16.988 20.516C17.4083 20.3946 17.8602 20.4223 18.2514 20.618L20.939 21.9617M7.74456 21.9617C7.74456 17.4073 11.4367 13.7152 15.9911 13.7152C16.902 13.7152 17.6404 14.4536 17.6404 15.3645V16.1892C17.6404 16.6446 18.0096 17.0138 18.4651 17.0138C19.8314 17.0138 20.939 18.1214 20.939 19.4878V21.9617M21.7638 46.7017L6.92004 46.7017C4.18738 46.7017 1.8529 44.4137 2.73084 41.826C6.40068 31.0088 22.2832 31.0087 25.953 41.8259C26.8309 44.4137 24.4964 46.7017 21.7638 46.7017Z" stroke="white" stroke-width="1.5"/>
<path d="M29.838 44.6185L44.6818 44.6184C47.4144 44.6184 49.7489 42.3305 48.871 39.7427C45.2012 28.9254 29.3186 28.9255 25.6488 39.7427C24.7709 42.3305 27.1053 44.6185 29.838 44.6185Z" fill="#444951"/>
<path d="M30.6625 21.5278V19.8785C30.6625 15.3241 34.3546 11.632 38.9091 11.632C39.8199 11.632 40.5584 12.3704 40.5584 13.2813V14.1059C40.5584 14.5614 40.9276 14.9306 41.383 14.9306C42.7493 14.9306 43.857 16.0382 43.857 17.4045V19.8785V21.5278C43.857 25.1713 40.9033 28.125 37.2598 28.125C33.6162 28.125 30.6625 25.1713 30.6625 21.5278Z" fill="#444951"/>
<path d="M30.6625 19.8785V21.5278C30.6625 25.1713 33.6162 28.125 37.2598 28.125C40.9033 28.125 43.857 25.1713 43.857 21.5278V19.8785M30.6625 19.8785L33.3501 18.5347C33.7413 18.3391 34.1933 18.3113 34.6135 18.4327C36.5287 18.986 37.9908 18.986 39.906 18.4327C40.3263 18.3113 40.7782 18.3391 41.1694 18.5347L43.857 19.8785M30.6625 19.8785C30.6625 15.3241 34.3546 11.632 38.9091 11.632C39.8199 11.632 40.5584 12.3704 40.5584 13.2813V14.1059C40.5584 14.5614 40.9276 14.9306 41.383 14.9306C42.7493 14.9306 43.857 16.0382 43.857 17.4045V19.8785M44.6818 44.6184L29.838 44.6185C27.1053 44.6185 24.7709 42.3305 25.6488 39.7427C29.3186 28.9255 45.2012 28.9254 48.871 39.7427C49.7489 42.3305 47.4144 44.6184 44.6818 44.6184Z" stroke="white" stroke-width="1.5"/>
<path d="M16.4274 45.8338L35.1774 45.8338C38.6291 45.8338 41.5779 42.9437 40.469 39.6749C35.8335 26.011 15.7713 26.0112 11.1357 39.6749C10.0268 42.9437 12.9756 45.8338 16.4274 45.8338Z" fill="#444951"/>
<path d="M17.4689 16.6666V14.5833C17.4689 8.83033 22.1326 4.16663 27.8855 4.16663C29.0361 4.16663 29.9689 5.09937 29.9689 6.24996V7.29163C29.9689 7.86692 30.4352 8.33329 31.0105 8.33329C32.7364 8.33329 34.1355 9.7324 34.1355 11.4583V14.5833V16.6666C34.1355 21.269 30.4046 25 25.8022 25C21.1998 25 17.4689 21.269 17.4689 16.6666Z" fill="#444951"/>
<path d="M17.4689 14.5833V16.6666C17.4689 21.269 21.1998 25 25.8022 25C30.4046 25 34.1355 21.269 34.1355 16.6666V14.5833M17.4689 14.5833L20.8637 12.8859C21.3579 12.6388 21.9287 12.6037 22.4596 12.7571C24.8788 13.4559 26.7256 13.4559 29.1448 12.7571C29.6757 12.6037 30.2465 12.6388 30.7407 12.8859L34.1355 14.5833M17.4689 14.5833C17.4689 8.83033 22.1326 4.16663 27.8855 4.16663C29.0361 4.16663 29.9689 5.09937 29.9689 6.24996V7.29163C29.9689 7.86692 30.4352 8.33329 31.0105 8.33329C32.7364 8.33329 34.1355 9.7324 34.1355 11.4583V14.5833M35.1774 45.8338L16.4274 45.8338C12.9756 45.8338 10.0268 42.9437 11.1357 39.6749C15.7713 26.0112 35.8335 26.011 40.469 39.6749C41.578 42.9437 38.6291 45.8338 35.1774 45.8338Z" stroke="white" stroke-width="1.5"/>
</svg>
