<svg width="51" height="50" viewBox="0 0 51 50" fill="none" xmlns="http://www.w3.org/2000/svg">
<g clip-path="url(#clip0_298_13138)">
<path d="M6.78809 13.9509L7.52178 7.31891L14.1538 6.58522L25.2002 17.6317L36.2474 6.58444L42.8794 7.31814L43.6131 13.9501L32.5659 24.9974L39.1971 31.6286L37.7211 33.0988L44.3802 39.7579C44.7705 40.1482 44.7707 40.781 44.3806 41.1716L41.3774 44.1788C40.9869 44.5698 40.3534 44.57 39.9627 44.1793L33.3046 37.5211L31.8314 38.9943L25.2002 32.3631L18.5698 38.9935L17.0995 37.5175L11.206 43.411C10.3928 44.2242 9.07442 44.2247 8.26068 43.412L6.78658 41.9398C5.97209 41.1263 5.97165 39.8065 6.78562 38.9925L12.6772 33.1009L11.2041 31.6278L17.8345 24.9974L6.78809 13.9509Z" fill="#444951"/>
<path d="M7.52178 7.31891L7.43931 6.57346C7.09039 6.61206 6.81493 6.88753 6.77633 7.23645L7.52178 7.31891ZM6.78809 13.9509L6.04264 13.8684C6.0176 14.0948 6.09674 14.3202 6.25776 14.4812L6.78809 13.9509ZM31.8314 38.9943L32.3611 39.5253L32.3618 39.5246L31.8314 38.9943ZM29.0892 40.6701C28.796 40.9626 28.7953 41.4375 29.0878 41.7308C29.3804 42.024 29.8552 42.0246 30.1485 41.7321L29.0892 40.6701ZM14.1538 6.58522L14.6841 6.05489C14.5231 5.89387 14.2976 5.81473 14.0713 5.83977L14.1538 6.58522ZM39.1971 31.6286L39.7264 32.16L39.7282 32.1582L39.1971 31.6286ZM41.935 29.9456C42.2275 29.6524 42.2269 29.1775 41.9336 28.885C41.6403 28.5925 41.1655 28.5931 40.873 28.8864L41.935 29.9456ZM41.3774 44.1788L41.9081 44.7088L41.9081 44.7088L41.3774 44.1788ZM44.3806 41.1716L44.9113 41.7016L44.9113 41.7016L44.3806 41.1716ZM37.7211 33.0988L37.1918 32.5675L37.1905 32.5689L37.7211 33.0988ZM42.8794 7.31814L43.6249 7.23566C43.5863 6.88675 43.3108 6.61128 42.9619 6.57268L42.8794 7.31814ZM36.2474 6.58444L36.3299 5.83899C36.1036 5.81395 35.8781 5.8931 35.7171 6.05411L36.2474 6.58444ZM11.2041 31.6278L10.6731 32.1575L10.6737 32.1581L11.2041 31.6278ZM9.52827 28.8856C9.23576 28.5923 8.76088 28.5917 8.46761 28.8842C8.17433 29.1767 8.17372 29.6516 8.46623 29.9449L9.52827 28.8856ZM43.6131 13.9501L44.1435 14.4805C44.3045 14.3195 44.3836 14.094 44.3586 13.8677L43.6131 13.9501ZM18.5698 38.9935L18.0384 39.5228L18.0401 39.5245L18.5698 38.9935ZM20.2527 41.7314C20.546 42.0239 21.0209 42.0232 21.3134 41.73C21.6059 41.4367 21.6053 40.9618 21.312 40.6693L20.2527 41.7314ZM6.78658 41.9398L7.31657 41.4091L6.78658 41.9398ZM8.26068 43.412L8.79067 42.8813L8.79066 42.8813L8.26068 43.412ZM17.0995 37.5175L17.6309 36.9882L17.6295 36.9868L17.0995 37.5175ZM6.77633 7.23645L6.04264 13.8684L7.53354 14.0334L8.26723 7.40138L6.77633 7.23645ZM31.3018 38.4633L29.0892 40.6701L30.1485 41.7321L32.3611 39.5253L31.3018 38.4633ZM7.60425 8.06437L14.2363 7.33067L14.0713 5.83977L7.43931 6.57346L7.60425 8.06437ZM39.7282 32.1582L41.935 29.9456L40.873 28.8864L38.6661 31.0989L39.7282 32.1582ZM32.3618 39.5246L33.8349 38.0515L32.7743 36.9908L31.3011 38.4639L32.3618 39.5246ZM32.7743 38.0515L39.4324 44.7096L40.493 43.6489L33.8349 36.9908L32.7743 38.0515ZM41.9081 44.7088L44.9113 41.7016L43.85 40.6417L40.8467 43.6488L41.9081 44.7088ZM33.8353 38.0511L38.2518 33.6288L37.1905 32.5689L32.7739 36.9912L33.8353 38.0511ZM38.2504 33.6302L39.7264 32.1599L38.6679 31.0972L37.1918 32.5675L38.2504 33.6302ZM44.9105 39.2276L38.2515 32.5685L37.1908 33.6292L43.8498 40.2882L44.9105 39.2276ZM42.9619 6.57268L36.3299 5.83899L36.165 7.3299L42.797 8.06359L42.9619 6.57268ZM11.7351 31.0982L9.52827 28.8856L8.46623 29.9449L10.6731 32.1574L11.7351 31.0982ZM42.134 7.40061L42.8677 14.0326L44.3586 13.8677L43.6249 7.23566L42.134 7.40061ZM18.0401 39.5245L20.2527 41.7314L21.312 40.6693L19.0994 38.4625L18.0401 39.5245ZM10.6737 32.1581L12.1469 33.6313L13.2075 32.5706L11.7344 31.0975L10.6737 32.1581ZM12.1469 32.5706L6.25529 38.4622L7.31595 39.5229L13.2075 33.6313L12.1469 32.5706ZM6.2566 42.4705L7.73069 43.9426L8.79066 42.8813L7.31657 41.4091L6.2566 42.4705ZM12.1472 33.6316L16.5695 38.0482L17.6295 36.9868L13.2072 32.5703L12.1472 33.6316ZM16.5681 38.0468L18.0384 39.5228L19.1011 38.4642L17.6309 36.9882L16.5681 38.0468ZM11.7363 43.9413L17.6298 38.0478L16.5692 36.9872L10.6757 42.8807L11.7363 43.9413ZM7.73069 43.9426C8.83739 45.0479 10.6304 45.0473 11.7363 43.9413L10.6757 42.8807C10.1552 43.4011 9.31146 43.4014 8.79067 42.8813L7.73069 43.9426ZM6.25529 38.4622C5.1483 39.5692 5.14888 41.3642 6.2566 42.4705L7.31657 41.4091C6.79529 40.8885 6.79501 40.0438 7.31595 39.5229L6.25529 38.4622ZM35.7171 6.05411L24.6699 17.1013L25.7306 18.162L36.7778 7.11477L35.7171 6.05411ZM13.6235 7.11555L24.6699 18.162L25.7306 17.1013L14.6841 6.05489L13.6235 7.11555ZM32.0356 25.5277L38.6668 32.1589L39.7275 31.0983L33.0962 24.467L32.0356 25.5277ZM43.0828 13.4198L32.0356 24.467L33.0962 25.5277L44.1435 14.4805L43.0828 13.4198ZM24.6699 17.1013L17.3042 24.467L18.3649 25.5277L25.7306 18.162L24.6699 17.1013ZM17.3042 24.467L10.6737 31.0975L11.7344 32.1581L18.3649 25.5277L17.3042 24.467ZM6.25776 14.4812L17.3042 25.5277L18.3649 24.467L7.31842 13.4206L6.25776 14.4812ZM24.6699 32.8934L31.3011 39.5246L32.3618 38.4639L25.7306 31.8327L24.6699 32.8934ZM32.0356 24.467L24.6699 31.8327L25.7306 32.8934L33.0962 25.5277L32.0356 24.467ZM24.6699 31.8327L18.0394 38.4632L19.1001 39.5238L25.7306 32.8934L24.6699 31.8327ZM44.9113 41.7016C45.594 41.0181 45.5936 39.9107 44.9105 39.2276L43.8498 40.2882C43.9474 40.3858 43.9475 40.544 43.85 40.6417L44.9113 41.7016ZM39.4324 44.7096C40.1161 45.3933 41.2248 45.393 41.9081 44.7088L40.8467 43.6488C40.7491 43.7466 40.5907 43.7466 40.493 43.6489L39.4324 44.7096Z" fill="white"/>
</g>
<defs>
<clipPath id="clip0_298_13138">
<rect width="50" height="50" fill="white" transform="translate(0.199219)"/>
</clipPath>
</defs>
</svg>
