<svg width="51" height="50" viewBox="0 0 51 50" fill="none" xmlns="http://www.w3.org/2000/svg">
<path d="M42.0664 22.8124V43.8333C42.0664 44.9379 41.171 45.8333 40.0664 45.8333H10.7331C9.6285 45.8333 8.73307 44.9379 8.73307 43.8333V22.8124C6.35574 22.3299 4.56641 20.228 4.56641 17.7083C4.56641 15.6854 5.25488 13.7227 6.51858 12.1431L11.6988 5.66785C12.4579 4.71899 13.6071 4.16663 14.8222 4.16663H35.9772C37.1924 4.16663 38.3416 4.71898 39.1007 5.66785L44.2809 12.1431C45.5446 13.7227 46.2331 15.6854 46.2331 17.7083C46.2331 20.228 44.4437 22.3299 42.0664 22.8124Z" fill="#444951"/>
<path d="M6.51858 12.1431L7.10423 12.6116L6.51858 12.1431ZM11.6988 5.66785L12.2844 6.13637L12.2844 6.13637L11.6988 5.66785ZM39.1007 5.66785L39.6864 5.19932V5.19932L39.1007 5.66785ZM44.2809 12.1431L43.6953 12.6116L44.2809 12.1431ZM36.5664 17.7083C36.5664 17.2941 36.2306 16.9583 35.8164 16.9583C35.4022 16.9583 35.0664 17.2941 35.0664 17.7083H36.5664ZM26.1497 17.7083C26.1497 17.2941 25.814 16.9583 25.3997 16.9583C24.9855 16.9583 24.6497 17.2941 24.6497 17.7083H26.1497ZM15.7331 17.7083C15.7331 17.2941 15.3973 16.9583 14.9831 16.9583C14.5689 16.9583 14.2331 17.2941 14.2331 17.7083H15.7331ZM42.8164 43.8333V22.8124H41.3164V43.8333H42.8164ZM9.48307 43.8333V22.8124H7.98307V43.8333H9.48307ZM7.10423 12.6116L12.2844 6.13637L11.1131 5.19932L5.93293 11.6746L7.10423 12.6116ZM14.8222 4.91663H35.9772V3.41663H14.8222V4.91663ZM38.5151 6.13637L43.6953 12.6116L44.8666 11.6746L39.6864 5.19932L38.5151 6.13637ZM10.7331 46.5833H40.0664V45.0833H10.7331V46.5833ZM35.0664 17.7083C35.0664 20.1706 33.0703 22.1666 30.6081 22.1666V23.6666C33.8988 23.6666 36.5664 20.999 36.5664 17.7083H35.0664ZM30.6081 22.1666C28.1458 22.1666 26.1497 20.1706 26.1497 17.7083H24.6497C24.6497 20.999 27.3174 23.6666 30.6081 23.6666V22.1666ZM41.0247 22.1666C38.5625 22.1666 36.5664 20.1706 36.5664 17.7083H35.0664C35.0664 20.999 37.734 23.6666 41.0247 23.6666V22.1666ZM24.6497 17.7083C24.6497 20.1706 22.6537 22.1666 20.1914 22.1666V23.6666C23.4821 23.6666 26.1497 20.999 26.1497 17.7083H24.6497ZM20.1914 22.1666C17.7291 22.1666 15.7331 20.1706 15.7331 17.7083H14.2331C14.2331 20.999 16.9007 23.6666 20.1914 23.6666V22.1666ZM14.2331 17.7083C14.2331 20.1706 12.237 22.1666 9.77474 22.1666V23.6666C13.0654 23.6666 15.7331 20.999 15.7331 17.7083H14.2331ZM45.4831 17.7083C45.4831 19.8643 43.9519 21.6644 41.9172 22.0774L42.2156 23.5475C44.9356 22.9953 46.9831 20.5918 46.9831 17.7083H45.4831ZM41.9172 22.0774C41.6295 22.1358 41.3311 22.1666 41.0247 22.1666V23.6666C41.4319 23.6666 41.8302 23.6257 42.2156 23.5475L41.9172 22.0774ZM9.77474 22.1666C9.4684 22.1666 9.17001 22.1358 8.88227 22.0774L8.58388 23.5475C8.96928 23.6257 9.36761 23.6666 9.77474 23.6666V22.1666ZM8.88227 22.0774C6.84759 21.6644 5.31641 19.8643 5.31641 17.7083H3.81641C3.81641 20.5918 5.86389 22.9953 8.58387 23.5475L8.88227 22.0774ZM43.6953 12.6116C44.8526 14.0582 45.4831 15.8557 45.4831 17.7083H46.9831C46.9831 15.5151 46.2366 13.3872 44.8666 11.6746L43.6953 12.6116ZM5.93293 11.6746C4.56284 13.3872 3.81641 15.5151 3.81641 17.7083H5.31641C5.31641 15.8557 5.94692 14.0582 7.10423 12.6116L5.93293 11.6746ZM35.9772 4.91663C36.9645 4.91663 37.8983 5.36542 38.5151 6.13637L39.6864 5.19932C38.785 4.07255 37.4202 3.41663 35.9772 3.41663V4.91663ZM41.3164 43.8333C41.3164 44.5236 40.7568 45.0833 40.0664 45.0833V46.5833C41.5852 46.5833 42.8164 45.3521 42.8164 43.8333H41.3164ZM12.2844 6.13637C12.9012 5.36542 13.8349 4.91663 14.8222 4.91663V3.41663C13.3793 3.41663 12.0145 4.07255 11.1131 5.19932L12.2844 6.13637ZM7.98307 43.8333C7.98307 45.3521 9.21429 46.5833 10.7331 46.5833V45.0833C10.0427 45.0833 9.48307 44.5236 9.48307 43.8333H7.98307Z" fill="white"/>
</svg>
