<svg width="50" height="50" viewBox="0 0 50 50" fill="none" xmlns="http://www.w3.org/2000/svg">
<path d="M7.15655 4.18189L28.1597 2.34436C29.8102 2.19995 31.2653 3.42093 31.4097 5.07147L31.7832 9.34029L39.6091 10.025C43.0478 10.3258 45.5915 13.3573 45.2906 16.7959L43.1117 41.7008C42.8109 45.1394 39.7794 47.6831 36.3408 47.3823L21.8129 46.1112C18.9537 45.8611 16.7133 43.7231 16.2124 41.0329L10.4249 41.5392C8.77434 41.6836 7.31925 40.4626 7.17484 38.8121L4.42944 7.43194C4.28503 5.78139 5.506 4.3263 7.15655 4.18189Z" fill="#444951"/>
<path d="M31.7832 9.34029L39.6091 10.025C43.0478 10.3258 45.5915 13.3573 45.2906 16.7959L43.1117 41.7008C42.8109 45.1394 39.7794 47.6831 36.3408 47.3823L21.8129 46.1112C18.9537 45.8611 16.7133 43.7231 16.2124 41.0329M31.7832 9.34029L31.4097 5.07148C31.2653 3.42093 29.8102 2.19995 28.1597 2.34436L7.15655 4.18189C5.506 4.3263 4.28503 5.78139 4.42944 7.43194L7.17484 38.8121C7.31925 40.4626 8.77434 41.6836 10.4249 41.5392L16.2124 41.0329M31.7832 9.34029L34.1551 36.4516C34.2995 38.1022 33.0786 39.5573 31.428 39.7017L16.2124 41.0329" stroke="white" stroke-width="1.5"/>
</svg>
