<svg width="51" height="50" viewBox="0 0 51 50" fill="none" xmlns="http://www.w3.org/2000/svg">
<path d="M14.4434 8.03618L5.45523 4.4409C5.12679 4.30953 4.76953 4.55141 4.76953 4.90514V40.3126C4.76953 41.1304 5.26743 41.8658 6.02675 42.1695L14.4434 45.5362C14.9202 45.7269 15.4522 45.7269 15.929 45.5362L24.8601 41.9637C25.3369 41.773 25.8688 41.773 26.3456 41.9637L35.2768 45.5362C35.7536 45.7269 36.2855 45.7269 36.7623 45.5362L45.179 42.1695C45.9383 41.8658 46.4362 41.1304 46.4362 40.3126V4.90514C46.4362 4.55141 46.0789 4.30953 45.7505 4.4409L36.7623 8.03618C36.2855 8.22691 35.7536 8.22691 35.2768 8.03618L26.3456 4.46374C25.8688 4.27301 25.3369 4.27301 24.8601 4.46374L15.929 8.03618C15.4522 8.22691 14.9202 8.22691 14.4434 8.03618Z" fill="#444951" stroke="white" stroke-width="1.5"/>
<path fill-rule="evenodd" clip-rule="evenodd" d="M21.7939 14.8088L23.7962 27.6229C23.935 28.5116 24.7004 29.1667 25.5999 29.1667C26.4993 29.1667 27.2647 28.5116 27.4036 27.6229L29.4058 14.8088C29.5953 13.5958 28.6574 12.5 27.4298 12.5H23.77C22.5423 12.5 21.6044 13.5958 21.7939 14.8088ZM25.5999 36.4583C26.7505 36.4583 27.6832 35.5256 27.6832 34.375C27.6832 33.2244 26.7505 32.2917 25.5999 32.2917C24.4493 32.2917 23.5165 33.2244 23.5165 34.375C23.5165 35.5256 24.4493 36.4583 25.5999 36.4583Z" fill="white"/>
</svg>
