<svg width="16" height="16" viewBox="0 0 16 16" fill="none" xmlns="http://www.w3.org/2000/svg">
<g id="Capoint" clip-path="url(#clip0_315_3772)">
<g id="Group 9">
<path id="Vector 237" d="M15 8C15 11.866 11.866 15 8 15C4.13401 15 1 11.866 1 8C1 4.13401 4.13401 1 8 1C11.866 1 15 4.13401 15 8Z" stroke="#FFD949"/>
<g id="darklogo">
<g id="Subtract" filter="url(#filter0_d_315_3772)">
<path fill-rule="evenodd" clip-rule="evenodd" d="M7.58594 9.40015H8.67504V9.84016H7.93247V9.95016H8.57603V10.1335H7.58594V9.40015ZM7.93247 9.58348H8.32851V9.69349H7.93247V9.58348Z" fill="#FFD949"/>
</g>
<g id="Vector 56" filter="url(#filter1_d_315_3772)">
<path d="M7.80376 8.85005H7.58594V8.1167H8.67504V8.85005H8.45722V8.30004H8.2394V8.85005H8.02158V8.30004H7.80376V8.85005Z" fill="#FFD949"/>
</g>
<g id="Subtract_2" filter="url(#filter2_d_315_3772)">
<path fill-rule="evenodd" clip-rule="evenodd" d="M7.68064 6.83325H8.67504V7.5666H7.58594V7.08992H8.29622V7.01659H7.68064V6.83325ZM7.9174 7.27326H8.29622V7.38326H7.9174V7.27326Z" fill="#FFD949"/>
</g>
<g id="Vector 506" filter="url(#filter3_d_315_3772)">
<path d="M10.338 10.3168H9.43041V7.20005V6.4667H8.94549L8.80027 6.28336H9.127V6.10002H8.64598L8.49169 5.91669H8.94549V5.73335H8.33783L8.18311 5.55001H8.67321V5.36667H8.0379L7.76562 5H10.0787L12.1532 8.58883V6.4667L11.5049 5H12.6666L13.3019 6.4667L13.3201 10.3168H12.4125H12.1532L10.4677 7.39255V10.3168H10.338Z" fill="#FFD949"/>
</g>
<g id="Vector 37" filter="url(#filter4_d_315_3772)">
<path d="M6.4589 6.32003L7.76583 5H3.62724L2.32031 6.32003V8.81342L3.62724 10.1334H7.19622V7.39586H4.95594V7.92827H6.3863V8.81342H3.99027L3.62724 8.44674V6.6867L3.99027 6.32003H6.4589Z" fill="#FFD949"/>
</g>
</g>
</g>
</g>
<defs>
<filter id="filter0_d_315_3772" x="3.58594" y="9.40015" width="9.08984" height="8.7334" filterUnits="userSpaceOnUse" color-interpolation-filters="sRGB">
<feFlood flood-opacity="0" result="BackgroundImageFix"/>
<feColorMatrix in="SourceAlpha" type="matrix" values="0 0 0 0 0 0 0 0 0 0 0 0 0 0 0 0 0 0 127 0" result="hardAlpha"/>
<feOffset dy="4"/>
<feGaussianBlur stdDeviation="2"/>
<feComposite in2="hardAlpha" operator="out"/>
<feColorMatrix type="matrix" values="0 0 0 0 0 0 0 0 0 0 0 0 0 0 0 0 0 0 0.25 0"/>
<feBlend mode="normal" in2="BackgroundImageFix" result="effect1_dropShadow_315_3772"/>
<feBlend mode="normal" in="SourceGraphic" in2="effect1_dropShadow_315_3772" result="shape"/>
</filter>
<filter id="filter1_d_315_3772" x="3.58594" y="8.1167" width="9.08984" height="8.7334" filterUnits="userSpaceOnUse" color-interpolation-filters="sRGB">
<feFlood flood-opacity="0" result="BackgroundImageFix"/>
<feColorMatrix in="SourceAlpha" type="matrix" values="0 0 0 0 0 0 0 0 0 0 0 0 0 0 0 0 0 0 127 0" result="hardAlpha"/>
<feOffset dy="4"/>
<feGaussianBlur stdDeviation="2"/>
<feComposite in2="hardAlpha" operator="out"/>
<feColorMatrix type="matrix" values="0 0 0 0 0 0 0 0 0 0 0 0 0 0 0 0 0 0 0.25 0"/>
<feBlend mode="normal" in2="BackgroundImageFix" result="effect1_dropShadow_315_3772"/>
<feBlend mode="normal" in="SourceGraphic" in2="effect1_dropShadow_315_3772" result="shape"/>
</filter>
<filter id="filter2_d_315_3772" x="3.58594" y="6.83325" width="9.08984" height="8.7334" filterUnits="userSpaceOnUse" color-interpolation-filters="sRGB">
<feFlood flood-opacity="0" result="BackgroundImageFix"/>
<feColorMatrix in="SourceAlpha" type="matrix" values="0 0 0 0 0 0 0 0 0 0 0 0 0 0 0 0 0 0 127 0" result="hardAlpha"/>
<feOffset dy="4"/>
<feGaussianBlur stdDeviation="2"/>
<feComposite in2="hardAlpha" operator="out"/>
<feColorMatrix type="matrix" values="0 0 0 0 0 0 0 0 0 0 0 0 0 0 0 0 0 0 0.25 0"/>
<feBlend mode="normal" in2="BackgroundImageFix" result="effect1_dropShadow_315_3772"/>
<feBlend mode="normal" in="SourceGraphic" in2="effect1_dropShadow_315_3772" result="shape"/>
</filter>
<filter id="filter3_d_315_3772" x="3.76562" y="5" width="13.5547" height="13.3169" filterUnits="userSpaceOnUse" color-interpolation-filters="sRGB">
<feFlood flood-opacity="0" result="BackgroundImageFix"/>
<feColorMatrix in="SourceAlpha" type="matrix" values="0 0 0 0 0 0 0 0 0 0 0 0 0 0 0 0 0 0 127 0" result="hardAlpha"/>
<feOffset dy="4"/>
<feGaussianBlur stdDeviation="2"/>
<feComposite in2="hardAlpha" operator="out"/>
<feColorMatrix type="matrix" values="0 0 0 0 0 0 0 0 0 0 0 0 0 0 0 0 0 0 0.25 0"/>
<feBlend mode="normal" in2="BackgroundImageFix" result="effect1_dropShadow_315_3772"/>
<feBlend mode="normal" in="SourceGraphic" in2="effect1_dropShadow_315_3772" result="shape"/>
</filter>
<filter id="filter4_d_315_3772" x="-1.67969" y="5" width="13.4453" height="13.1335" filterUnits="userSpaceOnUse" color-interpolation-filters="sRGB">
<feFlood flood-opacity="0" result="BackgroundImageFix"/>
<feColorMatrix in="SourceAlpha" type="matrix" values="0 0 0 0 0 0 0 0 0 0 0 0 0 0 0 0 0 0 127 0" result="hardAlpha"/>
<feOffset dy="4"/>
<feGaussianBlur stdDeviation="2"/>
<feComposite in2="hardAlpha" operator="out"/>
<feColorMatrix type="matrix" values="0 0 0 0 0 0 0 0 0 0 0 0 0 0 0 0 0 0 0.25 0"/>
<feBlend mode="normal" in2="BackgroundImageFix" result="effect1_dropShadow_315_3772"/>
<feBlend mode="normal" in="SourceGraphic" in2="effect1_dropShadow_315_3772" result="shape"/>
</filter>
<clipPath id="clip0_315_3772">
<rect width="16" height="16" fill="white"/>
</clipPath>
</defs>
</svg>
