<svg width="60" height="60" viewBox="0 0 60 60" fill="none" xmlns="http://www.w3.org/2000/svg">
<path fill-rule="evenodd" clip-rule="evenodd" d="M1.54641 1.20388H1.21938V3.01119H0.728831V2.52924H0.238281V0.721933H0.892347V0.23999L29.3442 0.240014V0.601472H28.6901V0.962929H1.54641V1.20388ZM31.3064 0.240014H59.1042V0.721958H59.7583V1.08341V3.01119H59.2677V2.52924H58.7772V1.2039H58.4501L58.4387 0.962929H30.6523V0.601472H31.3064V0.240014ZM1.21938 4.45702V29.5181H0.728831V29.0361H0.238281V3.97507H0.728831V4.45702H1.21938ZM59.7583 4.45702V29.5181H59.2677V29.0361H58.7772V3.97507H59.2677V4.45702H59.7583ZM1.21938 30.9639V56.0249H0.728831V55.543H0.238281V30.4819H0.728831V30.9639H1.21938ZM59.7583 30.9639V56.0249H59.2677V55.543H58.7772V30.4819H59.2677V30.9639H59.7583ZM1.21938 57.4708V58.7961H1.54641V59.0371H29.3442V59.3985L28.6901 59.3985V59.76H0.892347V59.278H0.238281V56.9888H0.728831V57.4708H1.21938ZM59.7583 57.4708V58.9166C59.7583 59.3824 59.2458 59.76 58.6137 59.76H30.6523V59.3985H31.3064V59.0371H58.6137C58.704 59.0371 58.7772 58.9831 58.7772 58.9166V56.9888H59.2677V57.4708H59.7583Z" fill="#7A7A7C"/>
</svg>
