<svg width="186" height="186" viewBox="0 0 186 186" fill="none" xmlns="http://www.w3.org/2000/svg">
<g clip-path="url(#clip0_398_3567)">
<path fill-rule="evenodd" clip-rule="evenodd" d="M4.08791 3.01214H3.06593V8.65999H1.53297V7.15392H0V1.50607H2.04396V0L90.956 7.57735e-05V1.12963H88.9121V2.25918H4.08791V3.01214ZM97.0879 7.57735e-05H183.956V1.50615H186V2.6357V8.65999H184.467V7.15392H182.934V3.01222H181.912L181.876 2.25918H95.044V1.12963H97.0879V7.57735e-05ZM3.06593 13.1782V91.494H1.53297V89.9879H0V11.6721H1.53297V13.1782H3.06593ZM186 13.1782V91.494H184.467V89.9879H182.934V11.6721H184.467V13.1782H186ZM3.06593 96.0122V174.328H1.53297V172.822H0V94.5061H1.53297V96.0122H3.06593ZM186 96.0122V174.328H184.467V172.822H182.934V94.5061H184.467V96.0122H186ZM3.06593 178.846V182.988H4.08791V183.741H90.956V184.87H88.9121V186H2.04396V184.494H0V177.34H1.53297V178.846H3.06593ZM186 178.846V183.364C186 184.82 184.399 186 182.423 186H95.044V184.87H97.0879V183.741H182.423C182.705 183.741 182.934 183.572 182.934 183.364V177.34H184.467V178.846H186Z" fill="url(#paint0_linear_398_3567)"/>
</g>
<defs>
<linearGradient id="paint0_linear_398_3567" x1="186" y1="135.261" x2="-4.80584e-06" y2="50.7385" gradientUnits="userSpaceOnUse">
<stop stop-color="#5E636A"/>
<stop offset="0.2" stop-color="#597950"/>
<stop offset="0.4" stop-color="#2E6082"/>
<stop offset="0.6" stop-color="#882E2D"/>
<stop offset="0.8" stop-color="#9656B5"/>
<stop offset="1" stop-color="#E8AD23"/>
</linearGradient>
<clipPath id="clip0_398_3567">
<rect width="186" height="186" fill="white"/>
</clipPath>
</defs>
</svg>
