<svg width="16" height="16" viewBox="0 0 16 16" fill="none" xmlns="http://www.w3.org/2000/svg">
<g id="Energy" clip-path="url(#clip0_312_3688)">
<path id="Vector 237" d="M15 8C15 11.866 11.866 15 8 15C4.13401 15 1 11.866 1 8C1 4.13401 4.13401 1 8 1C11.866 1 15 4.13401 15 8Z" stroke="#849CF1"/>
<path id="Vector 310" d="M5.96772 7.04197L8.2323 4.21125C8.45711 3.93025 8.89582 4.21095 8.73489 4.53282L8.05824 5.88612C7.72579 6.55102 8.20929 7.33333 8.95267 7.33333H9.25401C10.0925 7.33333 10.5587 8.30326 10.0349 8.95803L7.7703 11.7887C7.5455 12.0698 7.10678 11.789 7.26771 11.4672L7.94436 10.1139C8.27681 9.44898 7.79332 8.66667 7.04993 8.66667H6.74859C5.91009 8.66667 5.44391 7.69674 5.96772 7.04197Z" fill="#849CF1"/>
</g>
<defs>
<clipPath id="clip0_312_3688">
<rect width="16" height="16" fill="white"/>
</clipPath>
</defs>
</svg>
