<svg width="180" height="180" viewBox="0 0 180 180" fill="none" xmlns="http://www.w3.org/2000/svg">
<g clip-path="url(#clip0_398_3556)">
<path fill-rule="evenodd" clip-rule="evenodd" d="M94.1703 34.6147H103.841V38.7685H113.534V42.9224H120.457V47.0762H124.611V49.4862L127.368 46.7289L128.351 47.7124L131.302 44.762L132.285 45.7455L136.219 41.8117L137.203 42.7952L134.252 45.7455L136.219 47.7124L133.268 50.6627L134.252 51.6462L130.514 55.3839H132.918V59.5378H137.072V66.4608H141.226V76.1532H145.38V85.8267H153.976V87.2175H162.321V88.6083H179.01V89.9991H172.056V91.3899H163.711V92.7807H152.585V94.1714H145.38V103.845H141.226V113.537H137.072V120.461H132.918V124.614H130.513L134.252 128.355L133.269 129.338L136.22 132.288L134.252 134.255L137.203 137.205L136.22 138.189L132.286 134.255L131.302 135.238L128.352 132.288L127.369 133.272L124.611 130.514V132.922H120.457V137.076H113.534V141.23H103.841V145.384H94.1703V152.586H92.7795V163.712H91.3887V172.057H89.9979V179.011H88.6071V162.321H87.2163V153.976H85.8255V145.384H76.1493V141.23H66.457V137.076H59.5339V132.922H55.38V130.518L51.6431 134.255L50.6596 133.272L47.7093 136.222L45.7424 134.255L42.7921 137.205L41.8086 136.222L45.7424 132.288L44.7589 131.305L47.7093 128.355L46.7258 127.371L49.4823 124.614H47.0723V120.461H42.9185V113.537H38.7646V103.845H34.6108V94.1714H27.4134V92.7807H16.287V91.3899H7.94226V89.9991H0.988281V88.6083H17.6778V87.2175H26.0226V85.8267H34.6108V76.1532H38.7646V66.4608H42.9185V59.5378H47.0723V55.3839H49.4807L46.7264 52.6296L47.7099 51.6462L44.7595 48.6958L45.7429 47.7125L41.8092 43.7787L42.7926 42.7952L45.7429 45.7455L47.7099 43.7787L50.6602 46.729L51.6436 45.7455L55.38 49.4819V47.0762H59.5339V42.9224H66.457V38.7685H76.1493V34.6147H85.8255V26.0232H87.2163V17.6784H88.6071V0.98877H89.9979V7.94276H91.3887V16.2875H92.7795V27.4139H94.1703V34.6147Z" fill="#191E25" fill-opacity="0.4"/>
<path d="M94.1687 34.6148H93.6742V35.1093H94.1687V34.6148ZM103.84 34.6148H104.334V34.1203H103.84V34.6148ZM103.84 38.7687H103.345V39.2632H103.84V38.7687ZM113.532 38.7687H114.027V38.2742H113.532V38.7687ZM113.532 42.9225H113.038V43.417H113.532V42.9225ZM120.455 42.9225H120.95V42.428H120.455V42.9225ZM120.455 47.0764H119.961V47.5709H120.455V47.0764ZM124.609 47.0764H125.104V46.5818H124.609V47.0764ZM124.609 49.4863H124.115V50.6801L124.959 49.836L124.609 49.4863ZM127.366 46.729L127.716 46.3794L127.366 46.0297L127.017 46.3794L127.366 46.729ZM128.349 47.7125L128 48.0622L128.349 48.4118L128.7 48.0622L128.349 47.7125ZM131.301 44.7622L131.65 44.4125L131.301 44.0628L130.951 44.4125L131.301 44.7622ZM132.284 45.7456L131.934 46.0953L132.284 46.445L132.633 46.0953L132.284 45.7456ZM136.217 41.8118L136.567 41.4621L136.217 41.1125L135.868 41.4621L136.217 41.8118ZM137.201 42.7953L137.55 43.1449L137.9 42.7953L137.55 42.4456L137.201 42.7953ZM134.251 45.7456L133.901 45.3959L133.552 45.7456L133.901 46.0953L134.251 45.7456ZM136.217 47.7125L136.567 48.0622L136.917 47.7125L136.567 47.3628L136.217 47.7125ZM133.267 50.6628L132.918 50.3132L132.568 50.6628L132.918 51.0125L133.267 50.6628ZM134.251 51.6463L134.6 51.9959L134.95 51.6463L134.6 51.2966L134.251 51.6463ZM130.512 55.384L130.163 55.0343L129.319 55.8785H130.512V55.384ZM132.917 55.384H133.411V54.8895H132.917V55.384ZM132.917 59.5379H132.422V60.0324H132.917V59.5379ZM137.071 59.5379H137.565V59.0434H137.071V59.5379ZM137.071 66.461H136.576V66.9555H137.071V66.461ZM141.224 66.461H141.719V65.9665H141.224V66.461ZM141.224 76.1533H140.73V76.6478H141.224V76.1533ZM145.378 76.1533H145.873V75.6588H145.378V76.1533ZM145.378 85.8268H144.884V86.3213H145.378V85.8268ZM153.975 85.8268H154.469V85.3323H153.975V85.8268ZM153.975 87.2176H153.48V87.7121H153.975V87.2176ZM162.319 87.2176H162.814V86.7231H162.319V87.2176ZM162.319 88.6084H161.825V89.1029H162.319V88.6084ZM179.009 88.6084H179.503V88.1139H179.009V88.6084ZM179.009 89.9992V90.4937H179.503V89.9992H179.009ZM172.055 89.9992V89.5047H171.56V89.9992H172.055ZM172.055 91.39V91.8845H172.549V91.39H172.055ZM163.71 91.39V90.8955H163.215V91.39H163.71ZM163.71 92.7808V93.2753H164.204V92.7808H163.71ZM152.583 92.7808V92.2863H152.089V92.7808H152.583ZM152.583 94.1716V94.6661H153.078V94.1716H152.583ZM145.378 94.1716V93.6771H144.884V94.1716H145.378ZM145.378 103.845V104.34H145.873V103.845H145.378ZM141.224 103.845V103.351H140.73V103.845H141.224ZM141.224 113.538V114.032H141.719V113.538H141.224ZM137.071 113.538V113.043H136.576V113.538H137.071ZM137.071 120.461V120.955H137.565V120.461H137.071ZM132.917 120.461V119.966H132.422V120.461H132.917ZM132.917 124.615V125.109H133.411V124.615H132.917ZM130.511 124.615V124.12H129.318L130.161 124.965L130.511 124.615ZM134.251 128.355L134.601 128.704L134.95 128.355L134.601 128.005L134.251 128.355ZM133.268 129.338L132.918 128.989L132.569 129.338L132.918 129.688L133.268 129.338ZM136.218 132.288L136.568 132.638L136.917 132.288L136.568 131.939L136.218 132.288ZM134.251 134.255L133.902 133.905L133.552 134.255L133.902 134.606L134.251 134.255ZM137.201 137.206L137.551 137.556L137.9 137.206L137.551 136.856L137.201 137.206ZM136.218 138.189L135.868 138.539L136.218 138.889L136.568 138.539L136.218 138.189ZM132.285 134.255L132.634 133.905L132.284 133.556L131.935 133.905L132.285 134.255ZM131.301 135.238L130.952 135.589L131.301 135.939L131.651 135.589L131.301 135.238ZM128.35 132.288L128.701 131.939L128.35 131.589L128 131.939L128.35 132.288ZM127.367 133.272L127.017 133.621L127.367 133.972L127.716 133.621L127.367 133.272ZM124.609 130.514L124.959 130.165L124.115 129.32V130.514H124.609ZM124.609 132.922V133.417H125.104V132.922H124.609ZM120.455 132.922V132.428H119.961V132.922H120.455ZM120.455 137.076V137.571H120.95V137.076H120.455ZM113.532 137.076V136.582H113.038V137.076H113.532ZM113.532 141.23V141.724H114.027V141.23H113.532ZM103.84 141.23V140.735H103.345V141.23H103.84ZM103.84 145.384V145.878H104.334V145.384H103.84ZM94.1687 145.384V144.889H93.6742V145.384H94.1687ZM94.1687 152.586V153.08H94.6632V152.586H94.1687ZM92.7779 152.586V152.091H92.2834V152.586H92.7779ZM92.7779 163.712V164.207H93.2724V163.712H92.7779ZM91.3872 163.712V163.218H90.8926V163.712H91.3872ZM91.3872 172.057V172.552H91.8817V172.057H91.3872ZM89.9963 172.057V171.563H89.5018V172.057H89.9963ZM89.9963 179.011V179.506H90.4908V179.011H89.9963ZM88.6056 179.011H88.1111V179.506H88.6056V179.011ZM88.6056 162.322H89.1001V161.827H88.6056V162.322ZM87.2147 162.322H86.7202V162.816H87.2147V162.322ZM87.2147 153.976H87.7092V153.482H87.2147V153.976ZM85.824 153.976H85.3295V154.471H85.824V153.976ZM85.824 145.384H86.3185V144.889H85.824V145.384ZM76.1477 145.384H75.6532V145.878H76.1477V145.384ZM76.1477 141.23H76.6422V140.735H76.1477V141.23ZM66.4554 141.23H65.9609V141.724H66.4554V141.23ZM66.4554 137.076H66.9499V136.582H66.4554V137.076ZM59.5323 137.076H59.0378V137.571H59.5323V137.076ZM59.5323 132.922H60.0268V132.428H59.5323V132.922ZM55.3784 132.922H54.8839V133.417H55.3784V132.922ZM55.3784 130.518H55.873V129.324L55.0287 130.169L55.3784 130.518ZM51.6415 134.255L51.2918 134.606L51.6415 134.955L51.9911 134.606L51.6415 134.255ZM50.658 133.272L51.0077 132.922L50.658 132.572L50.3083 132.922L50.658 133.272ZM47.7077 136.223L47.358 136.572L47.7077 136.922L48.0574 136.572L47.7077 136.223ZM45.7408 134.255L46.0904 133.905L45.7408 133.556L45.3911 133.905L45.7408 134.255ZM42.7905 137.206L42.4408 137.556L42.7905 137.905L43.1401 137.556L42.7905 137.206ZM41.807 136.223L41.4573 135.872L41.1077 136.223L41.4573 136.572L41.807 136.223ZM45.7408 132.288L46.0904 132.638L46.4402 132.288L46.0904 131.939L45.7408 132.288ZM44.7574 131.305L44.4076 130.955L44.058 131.305L44.4076 131.654L44.7574 131.305ZM47.7077 128.355L48.0574 128.704L48.407 128.355L48.0574 128.005L47.7077 128.355ZM46.7242 127.371L46.3746 127.022L46.0249 127.371L46.3746 127.721L46.7242 127.371ZM49.4807 124.615L49.8304 124.965L50.6746 124.12H49.4807V124.615ZM47.0708 124.615H46.5762V125.109H47.0708V124.615ZM47.0708 120.461H47.5653V119.966H47.0708V120.461ZM42.9169 120.461H42.4224V120.955H42.9169V120.461ZM42.9169 113.538H43.4114V113.043H42.9169V113.538ZM38.7631 113.538H38.2686V114.032H38.7631V113.538ZM38.7631 103.845H39.2576V103.351H38.7631V103.845ZM34.6092 103.845H34.1147V104.34H34.6092V103.845ZM34.6092 94.1716H35.1037V93.6771H34.6092V94.1716ZM27.4118 94.1716H26.9173V94.6661H27.4118V94.1716ZM27.4118 92.7808H27.9063V92.2863H27.4118V92.7808ZM16.2854 92.7808H15.7909V93.2753H16.2854V92.7808ZM16.2854 91.39H16.7799V90.8955H16.2854V91.39ZM7.94067 91.39H7.44617V91.8845H7.94067V91.39ZM7.94067 89.9992H8.43518V89.5047H7.94067V89.9992ZM0.986693 89.9992H0.492188V90.4937H0.986693V89.9992ZM0.986693 88.6084V88.1139H0.492188V88.6084H0.986693ZM17.6763 88.6084V89.1029H18.1708V88.6084H17.6763ZM17.6763 87.2176V86.7231H17.1818V87.2176H17.6763ZM26.021 87.2176V87.7121H26.5155V87.2176H26.021ZM26.021 85.8268V85.3323H25.5265V85.8268H26.021ZM34.6092 85.8268V86.3213H35.1037V85.8268H34.6092ZM34.6092 76.1533V75.6588H34.1147V76.1533H34.6092ZM38.7631 76.1533V76.6478H39.2576V76.1533H38.7631ZM38.7631 66.461V65.9665H38.2686V66.461H38.7631ZM42.9169 66.461V66.9555H43.4114V66.461H42.9169ZM42.9169 59.5379V59.0434H42.4224V59.5379H42.9169ZM47.0708 59.5379V60.0324H47.5653V59.5379H47.0708ZM47.0708 55.384V54.8895H46.5762V55.384H47.0708ZM49.4791 55.384V55.8785H50.6729L49.8287 55.0343L49.4791 55.384ZM46.7248 52.6297L46.3752 52.28L46.0255 52.6297L46.3752 52.9795L46.7248 52.6297ZM47.7083 51.6463L48.0579 51.996L48.4076 51.6463L48.0579 51.2967L47.7083 51.6463ZM44.758 48.696L44.4082 48.3463L44.0586 48.696L44.4082 49.0457L44.758 48.696ZM45.7413 47.7126L46.091 48.0622L46.4408 47.7126L46.091 47.3629L45.7413 47.7126ZM41.8076 43.7788L41.4579 43.4291L41.1083 43.7788L41.4579 44.1284L41.8076 43.7788ZM42.791 42.7953L43.1407 42.4457L42.791 42.096L42.4414 42.4457L42.791 42.7953ZM45.7413 45.7456L45.3917 46.0954L45.7413 46.445L46.091 46.0954L45.7413 45.7456ZM47.7083 43.7788L48.0579 43.4291L47.7083 43.0795L47.3586 43.4291L47.7083 43.7788ZM50.6586 46.7291L50.3089 47.0787L50.6586 47.4284L51.0082 47.0787L50.6586 46.7291ZM51.6421 45.7456L51.9917 45.396L51.6421 45.0463L51.2923 45.396L51.6421 45.7456ZM55.3784 49.482L55.0287 49.8317L55.873 50.6759V49.482H55.3784ZM55.3784 47.0764V46.5818H54.8839V47.0764H55.3784ZM59.5323 47.0764V47.5709H60.0268V47.0764H59.5323ZM59.5323 42.9225V42.428H59.0378V42.9225H59.5323ZM66.4554 42.9225V43.417H66.9499V42.9225H66.4554ZM66.4554 38.7687V38.2742H65.9609V38.7687H66.4554ZM76.1477 38.7687V39.2632H76.6422V38.7687H76.1477ZM76.1477 34.6148V34.1203H75.6532V34.6148H76.1477ZM85.824 34.6148V35.1093H86.3185V34.6148H85.824ZM85.824 26.0233V25.5288H85.3295V26.0233H85.824ZM87.2147 26.0233V26.5178H87.7092V26.0233H87.2147ZM87.2147 17.6785V17.184H86.7202V17.6785H87.2147ZM88.6056 17.6785V18.173H89.1001V17.6785H88.6056ZM88.6056 0.98889V0.494385H88.1111V0.98889H88.6056ZM89.9963 0.98889H90.4908V0.494385H89.9963V0.98889ZM89.9963 7.94288H89.5018V8.43738H89.9963V7.94288ZM91.3872 7.94288H91.8817V7.44837H91.3872V7.94288ZM91.3872 16.2876H90.8926V16.7822H91.3872V16.2876ZM92.7779 16.2876H93.2724V15.7931H92.7779V16.2876ZM92.7779 27.414H92.2834V27.9085H92.7779V27.414ZM94.1687 27.414H94.6632V26.9195H94.1687V27.414ZM94.1687 35.1093H103.84V34.1203H94.1687V35.1093ZM103.345 34.6148V38.7687H104.334V34.6148H103.345ZM103.84 39.2632H113.532V38.2742H103.84V39.2632ZM113.038 38.7687V42.9225H114.027V38.7687H113.038ZM113.532 43.417H120.455V42.428H113.532V43.417ZM119.961 42.9225V47.0764H120.95V42.9225H119.961ZM120.455 47.5709H124.609V46.5818H120.455V47.5709ZM124.115 47.0764V49.4863H125.104V47.0764H124.115ZM124.959 49.836L127.716 47.0787L127.017 46.3794L124.26 49.1367L124.959 49.836ZM127.017 47.0787L128 48.0622L128.7 47.3628L127.716 46.3794L127.017 47.0787ZM128.7 48.0622L131.65 45.1118L130.951 44.4125L128 47.3628L128.7 48.0622ZM130.951 45.1118L131.934 46.0953L132.633 45.3959L131.65 44.4125L130.951 45.1118ZM132.633 46.0953L136.567 42.1615L135.868 41.4621L131.934 45.3959L132.633 46.0953ZM135.868 42.1615L136.851 43.1449L137.55 42.4456L136.567 41.4621L135.868 42.1615ZM136.851 42.4456L133.901 45.3959L134.6 46.0953L137.55 43.1449L136.851 42.4456ZM133.901 46.0953L135.868 48.0622L136.567 47.3628L134.6 45.3959L133.901 46.0953ZM135.868 47.3628L132.918 50.3132L133.617 51.0125L136.567 48.0622L135.868 47.3628ZM132.918 51.0125L133.901 51.9959L134.6 51.2966L133.617 50.3132L132.918 51.0125ZM133.901 51.2966L130.163 55.0343L130.863 55.7337L134.6 51.9959L133.901 51.2966ZM130.512 55.8785H132.917V54.8895H130.512V55.8785ZM132.422 55.384V59.5379H133.411V55.384H132.422ZM132.917 60.0324H137.071V59.0434H132.917V60.0324ZM136.576 59.5379V66.461H137.565V59.5379H136.576ZM137.071 66.9555H141.224V65.9665H137.071V66.9555ZM140.73 66.461V76.1533H141.719V66.461H140.73ZM141.224 76.6478H145.378V75.6588H141.224V76.6478ZM144.884 76.1533V85.8268H145.873V76.1533H144.884ZM145.378 86.3213H153.975V85.3323H145.378V86.3213ZM153.48 85.8268V87.2176H154.469V85.8268H153.48ZM153.975 87.7121H162.319V86.7231H153.975V87.7121ZM161.825 87.2176V88.6084H162.814V87.2176H161.825ZM162.319 89.1029H179.009V88.1139H162.319V89.1029ZM178.514 88.6084V89.9992H179.503V88.6084H178.514ZM179.009 89.5047H172.055V90.4937H179.009V89.5047ZM171.56 89.9992V91.39H172.549V89.9992H171.56ZM172.055 90.8955H163.71V91.8845H172.055V90.8955ZM163.215 91.39V92.7808H164.204V91.39H163.215ZM163.71 92.2863H152.583V93.2753H163.71V92.2863ZM152.089 92.7808V94.1716H153.078V92.7808H152.089ZM152.583 93.6771H145.378V94.6661H152.583V93.6771ZM144.884 94.1716V103.845H145.873V94.1716H144.884ZM145.378 103.351H141.224V104.34H145.378V103.351ZM140.73 103.845V113.538H141.719V103.845H140.73ZM141.224 113.043H137.071V114.032H141.224V113.043ZM136.576 113.538V120.461H137.565V113.538H136.576ZM137.071 119.966H132.917V120.955H137.071V119.966ZM132.422 120.461V124.615H133.411V120.461H132.422ZM132.917 124.12H130.511V125.109H132.917V124.12ZM130.161 124.965L133.902 128.704L134.601 128.005L130.861 124.265L130.161 124.965ZM133.902 128.005L132.918 128.989L133.617 129.688L134.601 128.704L133.902 128.005ZM132.918 129.688L135.868 132.638L136.568 131.939L133.617 128.989L132.918 129.688ZM135.868 131.939L133.902 133.905L134.601 134.606L136.568 132.638L135.868 131.939ZM133.902 134.606L136.852 137.556L137.551 136.856L134.601 133.905L133.902 134.606ZM136.852 136.856L135.868 137.84L136.568 138.539L137.551 137.556L136.852 136.856ZM136.568 137.84L132.634 133.905L131.935 134.606L135.868 138.539L136.568 137.84ZM131.935 133.905L130.952 134.889L131.651 135.589L132.634 134.606L131.935 133.905ZM131.651 134.889L128.701 131.939L128 132.638L130.952 135.589L131.651 134.889ZM128 131.939L127.017 132.922L127.716 133.621L128.701 132.638L128 131.939ZM127.716 132.922L124.959 130.165L124.26 130.864L127.017 133.621L127.716 132.922ZM124.115 130.514V132.922H125.104V130.514H124.115ZM124.609 132.428H120.455V133.417H124.609V132.428ZM119.961 132.922V137.076H120.95V132.922H119.961ZM120.455 136.582H113.532V137.571H120.455V136.582ZM113.038 137.076V141.23H114.027V137.076H113.038ZM113.532 140.735H103.84V141.724H113.532V140.735ZM103.345 141.23V145.384H104.334V141.23H103.345ZM103.84 144.889H94.1687V145.878H103.84V144.889ZM94.6632 152.586V145.384H93.6742V152.586H94.6632ZM92.7779 153.08H94.1687V152.091H92.7779V153.08ZM93.2724 163.712V152.586H92.2834V163.712H93.2724ZM91.3872 164.207H92.7779V163.218H91.3872V164.207ZM91.8817 172.057V163.712H90.8926V172.057H91.8817ZM89.9963 172.552H91.3872V171.563H89.9963V172.552ZM90.4908 179.011V172.057H89.5018V179.011H90.4908ZM88.6056 179.506H89.9963V178.517H88.6056V179.506ZM88.1111 162.322V179.011H89.1001V162.322H88.1111ZM87.2147 162.816H88.6056V161.827H87.2147V162.816ZM86.7202 153.976V162.322H87.7092V153.976H86.7202ZM85.824 154.471H87.2147V153.482H85.824V154.471ZM85.3295 145.384V153.976H86.3185V145.384H85.3295ZM85.824 144.889H76.1477V145.878H85.824V144.889ZM76.6422 145.384V141.23H75.6532V145.384H76.6422ZM76.1477 140.735H66.4554V141.724H76.1477V140.735ZM66.9499 141.23V137.076H65.9609V141.23H66.9499ZM66.4554 136.582H59.5323V137.571H66.4554V136.582ZM60.0268 137.076V132.922H59.0378V137.076H60.0268ZM59.5323 132.428H55.3784V133.417H59.5323V132.428ZM55.873 132.922V130.518H54.8839V132.922H55.873ZM51.9911 134.606L55.7281 130.868L55.0287 130.169L51.2918 133.905L51.9911 134.606ZM50.3083 133.621L51.2918 134.606L51.9911 133.905L51.0077 132.922L50.3083 133.621ZM48.0574 136.572L51.0077 133.621L50.3083 132.922L47.358 135.872L48.0574 136.572ZM45.3911 134.606L47.358 136.572L48.0574 135.872L46.0904 133.905L45.3911 134.606ZM43.1401 137.556L46.0904 134.606L45.3911 133.905L42.4408 136.856L43.1401 137.556ZM41.4573 136.572L42.4408 137.556L43.1401 136.856L42.1567 135.872L41.4573 136.572ZM45.3911 131.939L41.4573 135.872L42.1567 136.572L46.0904 132.638L45.3911 131.939ZM44.4076 131.654L45.3911 132.638L46.0904 131.939L45.107 130.955L44.4076 131.654ZM47.358 128.005L44.4076 130.955L45.107 131.654L48.0574 128.704L47.358 128.005ZM46.3746 127.721L47.358 128.704L48.0574 128.005L47.0739 127.022L46.3746 127.721ZM49.1311 124.265L46.3746 127.022L47.0739 127.721L49.8304 124.965L49.1311 124.265ZM49.4807 124.12H47.0708V125.109H49.4807V124.12ZM47.5653 124.615V120.461H46.5762V124.615H47.5653ZM47.0708 119.966H42.9169V120.955H47.0708V119.966ZM43.4114 120.461V113.538H42.4224V120.461H43.4114ZM42.9169 113.043H38.7631V114.032H42.9169V113.043ZM39.2576 113.538V103.845H38.2686V113.538H39.2576ZM38.7631 103.351H34.6092V104.34H38.7631V103.351ZM35.1037 103.845V94.1716H34.1147V103.845H35.1037ZM27.4118 94.6661H34.6092V93.6771H27.4118V94.6661ZM26.9173 92.7808V94.1716H27.9063V92.7808H26.9173ZM16.2854 93.2753H27.4118V92.2863H16.2854V93.2753ZM15.7909 91.39V92.7808H16.7799V91.39H15.7909ZM7.94067 91.8845H16.2854V90.8955H7.94067V91.8845ZM7.44617 89.9992V91.39H8.43518V89.9992H7.44617ZM0.986693 90.4937H7.94067V89.5047H0.986693V90.4937ZM0.492188 88.6084V89.9992H1.48119V88.6084H0.492188ZM17.6763 88.1139H0.986693V89.1029H17.6763V88.1139ZM17.1818 87.2176V88.6084H18.1708V87.2176H17.1818ZM26.021 86.7231H17.6763V87.7121H26.021V86.7231ZM25.5265 85.8268V87.2176H26.5155V85.8268H25.5265ZM34.6092 85.3323H26.021V86.3213H34.6092V85.3323ZM35.1037 85.8268V76.1533H34.1147V85.8268H35.1037ZM34.6092 76.6478H38.7631V75.6588H34.6092V76.6478ZM39.2576 76.1533V66.461H38.2686V76.1533H39.2576ZM38.7631 66.9555H42.9169V65.9665H38.7631V66.9555ZM43.4114 66.461V59.5379H42.4224V66.461H43.4114ZM42.9169 60.0324H47.0708V59.0434H42.9169V60.0324ZM47.5653 59.5379V55.384H46.5762V59.5379H47.5653ZM47.0708 55.8785H49.4791V54.8895H47.0708V55.8785ZM46.3752 52.9795L49.1294 55.7337L49.8287 55.0343L47.0745 52.28L46.3752 52.9795ZM47.3586 51.2967L46.3752 52.28L47.0745 52.9795L48.0579 51.996L47.3586 51.2967ZM44.4082 49.0457L47.3586 51.996L48.0579 51.2967L45.1076 48.3463L44.4082 49.0457ZM45.3917 47.3629L44.4082 48.3463L45.1076 49.0457L46.091 48.0622L45.3917 47.3629ZM41.4579 44.1284L45.3917 48.0622L46.091 47.3629L42.1572 43.4291L41.4579 44.1284ZM42.4414 42.4457L41.4579 43.4291L42.1572 44.1284L43.1407 43.145L42.4414 42.4457ZM46.091 45.396L43.1407 42.4457L42.4414 43.145L45.3917 46.0954L46.091 45.396ZM47.3586 43.4291L45.3917 45.396L46.091 46.0954L48.0579 44.1284L47.3586 43.4291ZM51.0082 46.3794L48.0579 43.4291L47.3586 44.1284L50.3089 47.0787L51.0082 46.3794ZM51.2923 45.396L50.3089 46.3794L51.0082 47.0787L51.9917 46.0954L51.2923 45.396ZM55.7281 49.1324L51.9917 45.396L51.2923 46.0954L55.0287 49.8317L55.7281 49.1324ZM55.873 49.482V47.0764H54.8839V49.482H55.873ZM55.3784 47.5709H59.5323V46.5818H55.3784V47.5709ZM60.0268 47.0764V42.9225H59.0378V47.0764H60.0268ZM59.5323 43.417H66.4554V42.428H59.5323V43.417ZM66.9499 42.9225V38.7687H65.9609V42.9225H66.9499ZM66.4554 39.2632H76.1477V38.2742H66.4554V39.2632ZM76.6422 38.7687V34.6148H75.6532V38.7687H76.6422ZM76.1477 35.1093H85.824V34.1203H76.1477V35.1093ZM86.3185 34.6148V26.0233H85.3295V34.6148H86.3185ZM85.824 26.5178H87.2147V25.5288H85.824V26.5178ZM87.7092 26.0233V17.6785H86.7202V26.0233H87.7092ZM87.2147 18.173H88.6056V17.184H87.2147V18.173ZM89.1001 17.6785V0.98889H88.1111V17.6785H89.1001ZM88.6056 1.4834H89.9963V0.494385H88.6056V1.4834ZM89.5018 0.98889V7.94288H90.4908V0.98889H89.5018ZM89.9963 8.43738H91.3872V7.44837H89.9963V8.43738ZM90.8926 7.94288V16.2876H91.8817V7.94288H90.8926ZM91.3872 16.7822H92.7779V15.7931H91.3872V16.7822ZM92.2834 16.2876V27.414H93.2724V16.2876H92.2834ZM92.7779 27.9085H94.1687V26.9195H92.7779V27.9085ZM93.6742 27.414V34.6148H94.6632V27.414H93.6742Z" fill="url(#paint0_linear_398_3556)"/>
</g>
<defs>
<linearGradient id="paint0_linear_398_3556" x1="25.1468" y1="77.054" x2="154.856" y2="105.913" gradientUnits="userSpaceOnUse">
<stop stop-color="#5E636A"/>
<stop offset="0.2" stop-color="#597950"/>
<stop offset="0.4" stop-color="#2E6082"/>
<stop offset="0.6" stop-color="#882E2D"/>
<stop offset="0.8" stop-color="#9656B5"/>
<stop offset="1" stop-color="#E8AD23"/>
</linearGradient>
<clipPath id="clip0_398_3556">
<rect width="180" height="180" fill="white"/>
</clipPath>
</defs>
</svg>
