<svg width="186" height="186" viewBox="0 0 186 186" fill="none" xmlns="http://www.w3.org/2000/svg">
<g clip-path="url(#clip0_346_6651)">
<path fill-rule="evenodd" clip-rule="evenodd" d="M88.9377 0.692383H2.71624V2.18724H0.6875V3.30838V9.28784H2.20907V7.79297H3.73061V3.6821H4.74499L4.78054 2.93467H90.9665V1.81352H88.9377V0.692383ZM182.26 23.1152V91.5052H183.781V90.0103H185.303V21.6203H183.781V23.1152H182.26ZM0.6875 13.7724V91.5052H2.20907V90.0103H3.73061V12.2775H2.20907V13.7724H0.6875ZM182.26 95.9897V173.723H183.781V172.228H185.303V94.4949H183.781V95.9897H182.26ZM0.6875 95.9897V173.723H2.20907V172.228H3.73061V94.4949H2.20907V95.9897H0.6875ZM182.26 178.207V182.318H181.245V183.065H95.0239V184.187H97.0527V185.308H183.274V183.813H185.303V176.712H183.781V178.207H182.26Z" fill="#C5A473"/>
<path d="M97.0561 1.81358V2.93473H154.876V1.8135H156.904V0.692383L95.0273 0.692434V1.81358H97.0561Z" fill="#C5A473"/>
<path d="M0.6875 178.207V183.813H2.71624V185.308H90.9665V184.187H88.9377V183.065H4.74499V182.318H3.73061V176.712H2.20907V178.207H0.6875Z" fill="#C5A473"/>
</g>
<defs>
<clipPath id="clip0_346_6651">
<rect width="186" height="186" fill="white"/>
</clipPath>
</defs>
</svg>
